<?xml version="1.0" encoding="UTF-8" standalone="no"?>
<svg
   version="1.0"
   viewBox="0 0 304.32269 417.82289"
   id="svg12"
   sodipodi:docname="rocket.svg"
   inkscape:version="1.2.1 (9c6d41e410, 2022-07-14)"
   width="304.32269"
   height="417.82291"
   xmlns:inkscape="http://www.inkscape.org/namespaces/inkscape"
   xmlns:sodipodi="http://sodipodi.sourceforge.net/DTD/sodipodi-0.dtd"
   xmlns="http://www.w3.org/2000/svg"
   xmlns:svg="http://www.w3.org/2000/svg">
  <defs
     id="defs16" />
  <sodipodi:namedview
     id="namedview14"
     pagecolor="#ffffff"
     bordercolor="#000000"
     borderopacity="0.25"
     inkscape:showpageshadow="2"
     inkscape:pageopacity="0.0"
     inkscape:pagecheckerboard="0"
     inkscape:deskcolor="#d1d1d1"
     showgrid="false"
     inkscape:zoom="0.96212526"
     inkscape:cx="-23.385728"
     inkscape:cy="209.43219"
     inkscape:window-width="1920"
     inkscape:window-height="991"
     inkscape:window-x="-9"
     inkscape:window-y="-9"
     inkscape:window-maximized="1"
     inkscape:current-layer="svg12" />
  <path
     d="m 89.438,415.4005 c -0.75,-1.28 -2.365,-8.05 -3.595,-15.045 -1.23,-7 -2.635,-12.725 -3.125,-12.725 -0.495,0 -1.625,1.62 -2.52,3.595 -2.43,5.37 -12.205,14.465 -15.545,14.465 -3.76,0 -3.675,-0.705 1.735,-13.925 2.53,-6.19 4.6,-11.78 4.6,-12.425 0,-0.645 -2.515,0.105 -5.59,1.665 -3.07,1.56 -7.95,3.19 -10.8435,3.63 -2.892,0.44 -6.2965,1.06 -7.565,1.38 -1.369,0.345 -2.6465,-0.23 -3.142,-1.415 -0.5925,-1.41 1.9745,-4.58 8.847,-10.915 l 9.6835,-8.925 -5.8845,-0.01 c -6.5435,-0.005 -15.2535,-1.905 -16.377,-3.57 -0.4015,-0.595 3.1285,-3.605 7.844,-6.685 8.5295,-5.575 9.7125,-7.77 4.216,-7.82 -4.2095,-0.04 -14.375,-4.545 -13.426,-5.95 0.803,-1.19 37.7225,-18.1 39.5175,-18.1 3.14,0 -4.125,4.095 -19.225,10.84 -17.1385,7.65 -17.306,7.765 -13.5495,9.205 2.0915,0.805 6.9085,1.83 10.704,2.285 3.7955,0.45 6.8955,1.165 6.8905,1.585 -0.005,0.42 -4.125,3.47 -9.157,6.78 -5.0305,3.315 -9.1665,6.38 -9.191,6.82 -0.083,1.475 10.472,2.435 17.323,1.575 l 6.8,-0.86 -11.365,11.235 c -6.2555,6.18 -11.166,11.42 -10.914,11.655 1.136,1.04 15.959,-3.475 20.554,-6.26 2.81,-1.705 5.76,-3.095 6.555,-3.095 2.05,0 0.475,5.865 -4.82,17.965 -2.44,5.58 -4.14,10.42 -3.77,10.755 1.32,1.21 9.8,-7.565 13.39,-13.86 5.575,-9.77 5.73,-9.61 9.525,9.82 1.555,7.945 3.325,14.905 3.94,15.465 0.61,0.565 2.06,-2.145 3.215,-6.015 8.4,-28.14 8.64,-28.26 18.44,-9.315 3.215,6.215 6.105,11.3 6.425,11.3 0.315,0 1.26,-5.28 2.095,-11.74 2.62,-20.315 2.74,-20.765 5.45,-20.765 1.525,0 4.615,2.795 8.1,7.325 3.1,4.03 5.78,6.605 5.96,5.72 0.18,-0.885 -0.475,-9.465 -1.45,-19.065 -0.985,-9.665 -1.275,-17.965 -0.655,-18.6 0.665,-0.675 1.12,-0.205 1.12,1.145 0,1.82 0.335,1.985 1.635,0.795 1.3,-1.19 1.275,-1.695 -0.11,-2.48 -2.765,-1.565 -16.1,-4.025 -17.06,-3.15 -0.475,0.44 -1.17,5.725 -1.54,11.75 -0.425,6.93 -1.245,11.125 -2.24,11.425 -0.86,0.26 -3.345,-2.405 -5.515,-5.92 -2.17,-3.52 -4.48,-7.2 -5.13,-8.18 -0.865,-1.3 -1.865,0.315 -3.72,6.02 -2,6.14 -3.135,7.875 -5.35,8.17 -3.13,0.415 -3.4,-0.125 -5.76,-11.505 -0.86,-4.14 -1.93,-7.51 -2.375,-7.495 -0.45,0.015 -1.875,2.135 -3.165,4.705 -2.38,4.725 -5.315,6.74 -7.785,5.34 -1.275,-0.72 -0.77,-7.4 1,-13.155 0.68,-2.2 0.275,-2.425 -3.595,-2.01 -3.37,0.36 -5.075,-0.225 -7.49,-2.585 l -3.13,-3.05 4.435,-3.365 c 2.435,-1.85 6.505,-5.095 9.045,-7.205 l 4.61,-3.835 -5.045,-4.75 c -3.195,-3.005 -5.89,-4.55 -7.34,-4.2 -1.81,0.43 -2.295,-0.225 -2.295,-3.135 0,-2.69 0.42,-3.36 1.555,-2.5 2.415,1.84 6.76,-3.03 4.715,-5.285 -0.85,-0.935 -2.705,-1.425 -4.125,-1.085 -3.77,0.905 -3.175,-0.46 2.02,-4.64 5.17,-4.16 5.875,-6.98 1.97,-7.915 -1.445,-0.345 -2.63,-1.2 -2.63,-1.9 0,-0.7 -0.975,-2.26 -2.175,-3.47 -1.3,-1.32 -1.565,-2.2 -0.655,-2.2 0.835,0 1.525,0.675 1.535,1.505 0.015,1.01 0.42,0.925 1.25,-0.275 0.845,-1.225 0.53,-2.535 -1.005,-4.195 -2.145,-2.32 -2.135,-2.345 0.285,-0.63 2.375,1.685 2.465,1.595 1.59,-1.625 -0.565,-2.08 -0.435,-3.135 0.335,-2.695 0.995,0.56 9.61,-21.505 9.365,-23.99 -0.03,-0.345 0.84,-2.22 1.94,-4.165 1.1,-1.945 3.99,-8.575 6.43,-14.735 2.435,-6.155 6.215,-14.795 8.4,-19.2 l 3.97,-8.005 -12.015,3.015 c -6.61,1.655 -13.055,3.29 -14.32,3.63 -1.265,0.34 -2.3,1.67 -2.3,2.955 0,1.285 -0.445,2.095 -0.985,1.795 -0.54,-0.3 -1.09,2.08 -1.22,5.295 -0.13,3.215 -0.9,6.815 -1.715,8 -1.18,1.715 -1.375,0.87 -0.945,-4.15 l 0.535,-6.31 -3.275,3 c -2.825,2.59 -6.18,3.66 -9.81,3.135 -0.545,-0.075 -0.84,0.535 -0.66,1.365 0.185,0.84 -0.685,1.345 -1.97,1.15 -1.5675,-0.24 -2.3015,0.43 -2.3015,2.105 0,1.79 -0.854,2.46 -3.132,2.46 -2.9565,0 -3.18,0.525 -3.989,9.33 -1.4575,15.875 -2.3505,21.97 -3.2185,21.97 -0.459,0 -1.877,-3.25 -3.1515,-7.225 -1.2745,-3.97 -2.8245,-7.22 -3.444,-7.22 -0.62,0 -1.818,3.215 -2.662,7.145 -1.816,8.45 -5.296,13.305 -7.666,10.69 -0.8345,-0.92 -1.697,-5.08 -1.916,-9.245 l -0.399,-7.565 -4.601,10.02 c -2.5305,5.51 -5.1635,9.885 -5.8515,9.715 -0.708,-0.175 -1.108,-5.14 -0.922,-11.44 l 0.3295,-11.125 -2.8275,4.215 C 7.133,265.2705 0,270.0955 0,265.2555 c 0,-1.095 2.0705,-5.38 4.601,-9.525 2.5305,-4.145 4.601,-7.735 4.601,-7.985 0,-0.25 -1.271,-0.54 -2.825,-0.645 -4.1575,-0.285 -5.9615,-2.345 -4.2685,-4.865 1.1865,-1.77 13.0265,-9.77 21.0955,-14.26 2.356,-1.31 2.353,-1.43 -0.098,-3.935 -2.4995,-2.555 -2.4955,-2.625 0.3285,-6.125 3.353,-4.155 3.5055,-5.255 0.9925,-7.165 -1.5725,-1.195 -1.034,-2.775 3.441,-10.08 9.346,-15.26 14.2965,-20.265 30.17,-30.495 8.205,-5.29 15.705,-10.05 16.66,-10.575 2.42,-1.32 7.775,3.54 8.85,8.035 0.475,1.99 1.245,8.555 1.71,14.595 l 0.845,10.98 3.535,-3.18 c 1.945,-1.75 3.795,-2.95 4.11,-2.66 0.31,0.285 2.61,-0.58 5.105,-1.93 2.495,-1.345 9.745,-3.67 16.11,-5.165 l 11.57,-2.715 8.715,-13.24 c 10.825,-16.455 22.645,-32.17 23.565,-31.33 0.38,0.35 -1.275,3.205 -3.675,6.35 -5.605,7.34 -3.005,4.905 9.95,-9.325 13.465,-14.79 29.52,-30.214996 30.73,-29.53 0.525,0.3 5.93,-3.639996 12.015,-8.744996 6.085,-5.105 13.72,-11.26 16.97,-13.68 7.995,-5.95 26.89,-17.505 30.205,-18.47 1.475,-0.43 2.345,-1.285 1.93,-1.895 -0.415,-0.615 0.99,-1.12 3.115,-1.12 4.71,0 6.13,-1.82 13.175,-16.865 5.05,-10.7935 5.16,-11.315 3.21,-15.059 -1.825,-3.509 -1.815,-4.439 0.12,-9.753 C 279.163,7.7490041 286.563,-0.00649592 290.778,4.083003e-6 295.703,0.00700408 301.948,4.2575041 303.543,8.6920041 c 1.145,3.1659999 1.05,5.3419999 -0.425,9.8209999 -3.67,11.174 -9.555,16.2375 -16.9,14.5475 -2.71,-0.62 -3.475,0.35 -8.12,10.285 l -5.13,10.97 2.12,5.645 c 4.48,11.94 5.575,23.075 5.465,55.604996 -0.115,32.855 -3.705,71.75 -7.09,76.675 -1.19,1.74 -1.36,0.97 -0.85,-3.845 0.35,-3.31 0.32,-4.935 -0.065,-3.61 -4.06,13.87 -10.505,29.03 -20.43,48.035 -11.685,22.37 -11.84,22.785 -9.245,24.675 4.425,3.23 9.11,12.46 10.85,21.38 l 1.65,8.465 7.03,-3.125 c 3.87,-1.715 7.045,-3.92 7.06,-4.895 0.015,-1.135 0.81,-0.745 2.22,1.095 1.665,2.18 2.22,5.72 2.3,14.715 0.055,6.515 -0.27,11.845 -0.73,11.845 -1.515,0 -2.14,6.015 -0.625,6.055 0.8,0.025 0.5,0.71 -0.67,1.525 -1.17,0.815 -2.555,3.265 -3.075,5.44 -2.24,9.325 -12.47,28.935 -14.74,28.245 -1.8,-0.55 -3.965,1.96 -5.025,5.83 -0.705,2.57 -0.31,3.315 2.195,4.105 2.62,0.83 2.27,1.035 -2.425,1.43 l -5.485,0.465 0.225,7.46 c 0.21,7.02 0.05,7.455 -2.735,7.365 -1.625,-0.05 -2.98,-0.05 -3.005,0 -0.03,0.055 -0.38,2.265 -0.78,4.91 -0.945,6.23 -2.72,7.935 -5.14,4.935 -2.075,-2.58 -1.825,-2.975 -5.15,8.01 -2.77,9.135 -5.555,9.11 -7.21,-0.065 l -0.735,-4.055 -4.245,5.52 c -5.345,6.95 -8.36,7.365 -7.385,1.005 0.645,-4.195 3.67,-14.61 5.245,-18.045 0.495,-1.09 -0.42,-1.295 -3.365,-0.755 -2.23,0.41 -4.05,0.27 -4.05,-0.31 0.005,-0.58 2.025,-4.125 4.495,-7.875 2.47,-3.75 4.145,-7.135 3.725,-7.52 -0.425,-0.39 -2.27,-0.705 -4.1,-0.705 -2.34,0 -2.92,-0.38 -1.945,-1.27 1.46,-1.34 7.88,-0.39 9.045,1.335 0.37,0.55 -1.115,3.665 -3.3,6.92 -2.19,3.255 -3.975,6.19 -3.975,6.525 0,0.33 1.475,0.34 3.285,0.025 3.93,-0.69 3.985,-0.145 0.865,8.245 -3.19,8.57 -4.455,14.645 -2.865,13.745 0.685,-0.385 3.145,-3.12 5.46,-6.075 2.32,-2.955 4.675,-5.375 5.24,-5.375 0.56,0 1.2,2.845 1.42,6.32 l 0.395,6.32 1.57,-4.215 c 0.865,-2.315 2.215,-6.515 3.01,-9.33 1.555,-5.53 3.295,-6.54 4.63,-2.69 1.3,3.76 3.28,1.57 3.28,-3.63 0,-5.185 1.75,-6.98 4.66,-4.77 1.625,1.24 1.9,0.67 1.82,-3.81 -0.16,-8.985 -4.22,-12.845 -5.825,-5.535 -1.715,7.815 -2.035,8.345 -4.085,6.785 -2.245,-1.705 -2.075,-1.845 -5.64,4.625 -4.33,7.865 -7.235,5.835 -3.45,-2.41 0.695,-1.505 0.36,-2.105 -1.175,-2.105 -1.985,0 -1.985,-0.29 -0.02,-3.77 2.16,-3.825 1.755,-4.75 -2.72,-6.27 -0.725,-0.245 -0.315,-1.475 0.915,-2.75 2.125,-2.195 2.49,-5.565 0.77,-7.135 -1.035,-0.95 -5.655,1.29 -11.87,5.755 -6.38,4.575 -6.455,2.255 -0.085,-2.555 2.665,-2.015 4.98,-4.495 5.145,-5.51 0.16,-1.02 -0.205,-1.57 -0.82,-1.225 -1.36,0.77 -8.545,-7.61 -7.415,-8.645 0.445,-0.41 1.625,-0.125 2.615,0.63 1.45,1.1 2.205,0.44 3.82,-3.32 1.905,-4.44 1.865,-4.82 -0.715,-7.185 -3.7,-3.385 -1.68,-4.855 2.145,-1.565 4.31,3.705 5.695,3.3 8.525,-2.505 1.37,-2.81 5.15,-8.65 8.4,-12.975 l 5.905,-7.86 -2.175,-5.985 c -1.2,-3.29 -3.63,-8.555 -5.405,-11.705 l -3.23,-5.72 -5.72,8.49 c -3.145,4.665 -6.01,8.215 -6.365,7.89 -0.36,-0.33 2.045,-4.535 5.345,-9.35 3.295,-4.815 5.73,-9 5.405,-9.295 -0.73,-0.67 -0.07,-1.43 -9.265,10.7 -4.265,5.625 -14.41,17.97 -22.545,27.425 -8.13,9.455 -14.785,17.655 -14.785,18.22 0,0.56 1.33,1.355 2.955,1.765 2.36,0.59 2.58,0.965 1.09,1.84 -1.895,1.12 -8.345,0.925 -19.31,-0.58 l -6.07,-0.835 0.94,7.38 c 0.51,4.06 0.58,7.38 0.145,7.38 -0.43,0 -2.005,-1.115 -3.495,-2.48 -3.825,-3.505 -5.62,-2.425 -7.275,4.385 -0.805,3.305 -2.11,5.79 -2.96,5.62 -0.86,-0.17 -1.51,1.135 -1.505,3.01 0.015,4.66 2.435,30.09 3.38,35.515 0.865,4.99 -0.885,6.035 -3.02,1.805 -0.75,-1.49 -4.17,-6.185 -7.595,-10.43 -4.495,-5.57 -6.5,-7.245 -7.2,-6.02 -0.53,0.935 -1.675,7.935 -2.545,15.545 -0.865,7.615 -2.11,14.34 -2.765,14.94 -2.055,1.89 -5.24,-1.735 -11.41,-12.995 -4.145,-7.55 -6.245,-10.3 -6.96,-9.09 -0.56,0.95 -2.62,6.875 -4.575,13.165 -4.515,14.51 -6.81,17.33 -9.855,12.12 z m 15.46,-53.105 c 1.23,-4.165 2.925,-7.78 3.765,-8.035 0.84,-0.255 3.945,3.22 6.895,7.725 l 5.37,8.19 -0.01,-11.435 -0.005,-11.435 -9.52,-4.585 c -5.23,-2.515 -12.17,-6.35 -15.415,-8.51 l -5.9,-3.935 -8.125,6.105 c -4.465,3.36 -8.17,6.775 -8.23,7.59 -0.155,2.13 6.42,3.335 9.275,1.705 1.325,-0.76 2.715,-1.38 3.09,-1.38 1.145,0 0.73,6.385 -0.73,11.205 -2.315,7.63 -0.44,7.895 3.35,0.47 1.96,-3.84 4.25,-6.785 5.08,-6.54 1.12,0.325 6.505,15.89 7.355,21.245 0.26,1.65 1.805,-1.795 3.755,-8.38 z m 123.04,4.17 c 0.44,-1.05 1.535,-1.68 2.44,-1.405 0.93,0.285 2.22,-1.11 2.97,-3.21 1.255,-3.52 1.085,-3.815 -3.29,-5.67 -3.845,-1.63 -4.92,-1.69 -6.475,-0.355 -1.595,1.37 -1.41,1.935 1.305,3.95 3.03,2.245 3.065,2.445 0.875,4.665 -1.26,1.275 -1.895,2.68 -1.415,3.125 1.445,1.32 2.74,0.925 3.59,-1.1 z m 18.4,-12.04 c 1.98,-4.715 -0.89,-9.14 -4.575,-7.055 -1.38,0.78 -1.625,6.965 -0.32,8.16 1.555,1.42 4.075,0.855 4.895,-1.105 z m -7.22,-6.82 c 0.195,-3.105 -1.85,-2.565 -3.6,0.955 -1.175,2.365 -1.15,3.43 0.12,4.695 1.36,1.35 1.785,1.19 2.495,-0.96 0.47,-1.42 0.915,-3.535 0.985,-4.69 z m -5.465,0.12 c 1.4,-3.03 1.045,-4.635 -1.035,-4.635 -1.56,0 -4.205,6.98 -3.205,8.46 1.085,1.605 2.19,0.61 4.24,-3.825 z m -89.575,-0.48 c 1.045,-3.815 0.48,-4.335 -4.97,-4.57 -3.545,-0.15 -4.44,0.3 -4.77,2.4 -0.295,1.905 0.57,2.91 3.29,3.815 5.325,1.78 5.525,1.73 6.45,-1.645 z m 85.11,-5.66 c -1.115,-1.655 -2.76,-0.935 -4.99,2.185 -1.795,2.51 -1.9,3.435 -0.565,4.91 1.415,1.56 1.96,1.26 3.905,-2.19 1.245,-2.2 1.985,-4.41 1.65,-4.905 z m -96.51,-1.065 c 0.05,-0.42 -1.05,-1.035 -2.45,-1.37 -3.5,-0.84 -4.875,2.805 -1.83,4.845 1.99,1.33 2.48,1.245 3.265,-0.575 0.51,-1.175 0.965,-2.48 1.015,-2.9 z m 126.595,-4.735 c 6.235,-11.365 7.395,-15.57 4.295,-15.57 -3.675,0 -17.62,-7.34 -21.06,-11.085 l -3.18,-3.46 -6.09,7.575 c -7.235,8.995 -9.91,13.515 -10.395,17.53 -0.305,2.56 0.71,3.41 7.415,6.195 4.27,1.78 7.32,3.64 6.775,4.135 -0.545,0.5 -0.08,0.59 1.03,0.2 1.11,-0.39 4.645,0.35 7.85,1.65 3.205,1.3 6.42,2.23 7.14,2.07 0.725,-0.16 3.525,-4.315 6.22,-9.24 z m -36.07,6.05 c 2.52,-3.69 0.445,-5.295 -2.46,-1.905 -2.955,3.435 -3.14,4.365 -0.87,4.365 0.91,0 2.41,-1.105 3.33,-2.46 z m -71.23,-0.65 c -0.44,-1.045 -0.8,-2.945 -0.8,-4.215 0,-1.27 -0.52,-2.31 -1.165,-2.31 -1.72,0 -2.55,7.075 -0.9,7.705 2.775,1.055 3.65,0.695 2.865,-1.18 z m 68.875,-5.765 c 0,-0.375 -0.89,-0.37 -1.975,0.01 -1.245,0.44 -1.97,-0.015 -1.97,-1.24 0,-3.195 -2.01,-2.195 -4.26,2.13 -2.98,5.725 -0.67,7.375 4.33,3.1 2.13,-1.825 3.875,-3.625 3.875,-4 z m -96.23,3.84 c 0.445,-2.115 -4.21,-5.18 -6.175,-4.07 -0.625,0.355 -1.39,1.87 -1.7,3.365 -0.495,2.355 -0.02,2.73 3.44,2.73 2.71,0 4.145,-0.655 4.435,-2.025 z m 20.78,-3.635 c 0.11,-3.51 -0.275,-4.16 -2.19,-3.7 -2.975,0.715 -4.655,6.35 -2.295,7.72 2.915,1.695 4.34,0.415 4.485,-4.02 z m -30.32,0.09 c 1.43,-4.135 -4.865,-6.62 -6.555,-2.59 -0.545,1.3 -0.015,2.65 1.425,3.61 3.17,2.125 4.105,1.94 5.13,-1.02 z m 23.54,-3.16 c 0.6,-1.795 0.355,-2.71 -0.725,-2.71 -0.895,0 -2.64,-0.84 -3.88,-1.865 -2.07,-1.715 -2.37,-1.555 -3.72,1.985 -2.02,5.31 -1.945,5.55 2.15,6.83 3.835,1.195 4.515,0.73 6.175,-4.24 z m -33.455,4.04 c 0,-0.26 -0.915,-0.795 -2.04,-1.19 -1.17,-0.41 -1.695,-0.205 -1.235,0.475 0.77,1.145 3.275,1.69 3.275,0.715 z m 2.63,-6.85 c 0,-0.465 -0.875,-1.155 -1.95,-1.53 -2.74,-0.96 -5.58,3.95 -3.115,5.375 1.66,0.96 5.065,-1.625 5.065,-3.845 z m 20.325,-0.715 c 0.71,-3.095 0.37,-4.08 -1.75,-5.12 -4.055,-1.985 -4.88,-1.61 -6.405,2.945 -1.325,3.955 -1.19,4.345 2.08,5.93 4.055,1.97 4.875,1.465 6.075,-3.755 z m -27.51,-0.51 c 0.485,-1.405 0.195,-3.14 -0.665,-3.91 -1.16,-1.045 -2.17,-0.675 -4.13,1.52 -2.03,2.28 -2.225,3.125 -0.895,3.895 2.855,1.66 4.77,1.15 5.69,-1.505 z m 16.895,-1.57 c 0.44,-1.595 1.145,-3.725 1.565,-4.735 0.52,-1.235 -0.6,-2.485 -3.4,-3.81 -2.295,-1.09 -4.34,-1.8 -4.54,-1.59 -0.205,0.215 -1.35,2.15 -2.54,4.305 l -2.175,3.91 4.305,2.405 c 5.46,3.045 5.825,3.02 6.785,-0.485 z m -22.855,-4.47 c 0,-0.49 -0.975,-1.78 -2.165,-2.87 -2.01,-1.84 -2.36,-1.8 -4.93,0.59 l -2.765,2.57 3.23,2.43 c 3.07,2.305 3.315,2.32 4.93,0.295 0.935,-1.17 1.7,-2.525 1.7,-3.015 z m 67.045,4.43 c 0,-0.295 -0.595,-0.865 -1.315,-1.275 -0.725,-0.41 -1.315,-0.17 -1.315,0.53 0,0.7 0.59,1.275 1.315,1.275 0.72,0 1.315,-0.24 1.315,-0.53 z m -11.785,-3.005 c -1.72,-2.935 -1.9,-6.33 -0.21,-3.89 0.89,1.285 1.275,1.215 1.935,-0.36 0.485,-1.155 0.285,-1.665 -0.475,-1.235 -0.715,0.405 -1.28,-0.51 -1.255,-2.045 l 0.045,-2.78 2.49,2.735 2.49,2.735 0.46,-2.735 c 0.425,-2.505 0.675,-2.38 2.99,1.48 1.92,3.205 2.64,3.705 3.02,2.09 0.27,-1.165 1.04,-1.81 1.71,-1.435 0.665,0.38 1.215,-0.155 1.215,-1.185 0,-1.035 0.63,-1.88 1.4,-1.88 0.77,0 1.08,0.95 0.69,2.11 -0.395,1.155 -0.1,2.915 0.655,3.91 1.065,1.41 1.185,1.21 0.535,-0.905 -0.49,-1.59 -0.255,-2.705 0.575,-2.705 0.77,0 1.4,-1.355 1.4,-3.01 0,-1.655 0.64,-3.01 1.42,-3.01 0.88,0 1.13,1.48 0.65,3.91 -0.71,3.625 -0.665,3.69 0.645,0.905 0.775,-1.655 1.175,-4.5 0.89,-6.32 -0.285,-1.82 -0.03,-3.31 0.565,-3.31 0.6,0 1.09,-1.735 1.09,-3.855 0,-2.945 0.36,-3.52 1.54,-2.44 1.18,1.08 1.18,2.14 0,4.51 -2.13,4.285 -1.85,5.44 0.43,1.785 1.035,-1.655 1.9,-4.23 1.925,-5.72 0.025,-1.49 0.64,-2.71 1.36,-2.71 0.725,0 1.325,-1.76 1.335,-3.91 0.015,-2.97 0.33,-3.475 1.295,-2.105 1.09,1.54 1.28,1.5 1.295,-0.305 0.01,-1.155 0.57,-2.105 1.24,-2.105 0.67,0 1.49,0.95 1.82,2.105 0.36,1.27 0.66,0.76 0.75,-1.275 0.09,-1.92 0.725,-3.06 1.47,-2.635 0.72,0.41 1.315,0.24 1.315,-0.37 0,-0.615 -5.175,-2.905 -11.505,-5.09 -15.565,-5.375 -39.33,-16.455 -52.91,-24.67 -6.145,-3.72 -11.695,-6.86 -12.33,-6.975 -1.795,-0.335 -7.39,-5.6 -7.39,-6.96 0,-0.67 -0.59,-0.885 -1.315,-0.475 -0.72,0.405 -1.31,-0.035 -1.31,-0.99 0,-0.95 -0.82,-2.35 -1.82,-3.11 -1.49,-1.13 -2.67,0.545 -6.46,9.18 l -4.635,10.565 2.515,3.755 c 2.95,4.41 3.5,7.865 0.865,5.455 -0.9,-0.825 -1.715,-2.02 -1.805,-2.645 -0.09,-0.63 -0.24,-1.685 -0.33,-2.35 -0.09,-0.66 -0.645,-1.205 -1.235,-1.205 -0.93,0 -1.16,7.325 -0.255,8.13 0.19,0.165 0.415,0.705 0.505,1.2 0.095,0.5 1.54,2.665 3.215,4.815 1.675,2.155 2.445,3.915 1.715,3.915 -0.725,0 -1.715,-0.58 -2.19,-1.285 -0.48,-0.71 -1.68,-1.005 -2.665,-0.655 -2.295,0.805 -3.745,-1.22 -1.7,-2.375 1.025,-0.58 1.185,-0.345 0.475,0.705 -0.695,1.03 -0.55,1.285 0.425,0.73 1.105,-0.625 1.085,-1.44 -0.08,-3.145 -1.085,-1.595 -1.86,-1.875 -2.515,-0.905 -0.52,0.77 -0.65,1.83 -0.295,2.36 0.355,0.525 -0.125,0.975 -1.075,0.99 -0.945,0.02 0.34,1.595 2.86,3.51 2.52,1.91 4.955,3.265 5.41,3.005 0.46,-0.26 1.95,0.69 3.31,2.115 2.43,2.535 2.43,2.565 -0.08,1.725 -2.42,-0.815 -2.435,-0.74 -0.33,1.395 3.575,3.615 2.58,4.255 -2.045,1.315 l -4.27,-2.715 2.56,2.69 c 2.515,2.645 3.865,6.19 2.355,6.19 -0.42,0 -1.945,-0.95 -3.39,-2.105 -2.08,-1.67 -1.965,-1.255 0.55,1.96 3.205,4.095 18.94,15.795 21.245,15.795 0.685,0 2.775,1.105 4.655,2.455 3.01,2.17 3.545,2.24 4.56,0.58 1.42,-2.33 3.075,-1.455 6.445,3.415 l 2.615,3.78 -0.865,-5.115 c -0.48,-2.815 -0.51,-5.115 -0.075,-5.115 1.06,0 6.015,7.505 5.96,9.03 -0.025,0.66 -0.92,-0.15 -1.995,-1.805 l -1.955,-3.01 0.36,3.01 c 0.205,1.725 1.195,3.005 2.325,3.005 1.52,0 1.875,-1.205 1.54,-5.245 -0.305,-3.72 0.005,-4.995 1.075,-4.39 0.83,0.47 1.18,1.64 0.775,2.605 -0.405,0.96 0.175,3.74 1.285,6.175 1.59,3.485 2.28,4.05 3.235,2.645 0.665,-0.985 0.895,-3.955 0.505,-6.605 -0.665,-4.52 -0.58,-4.67 1.355,-2.475 1.135,1.285 2.055,2.91 2.045,3.61 -0.015,0.7 -0.66,0.46 -1.44,-0.53 -1.18,-1.5 -1.285,-1.43 -0.63,0.41 0.43,1.22 1.14,3.525 1.58,5.12 0.435,1.59 1.34,2.895 2.01,2.895 0.7,0 0.64,-0.99 -0.14,-2.33 z m -7.77,-4.44 c -0.87,-1.745 -1.275,-3.445 -0.91,-3.785 0.37,-0.335 1.295,0.89 2.06,2.73 1.805,4.345 0.9,5.17 -1.15,1.055 z m -50.285,-38.675 c -1.635,-1.91 -1.59,-1.95 0.495,-0.455 1.265,0.91 2.3,1.86 2.3,2.11 0,0.99 -1.08,0.35 -2.795,-1.655 z m 1.48,-6.92 c -0.9,-0.995 -1.15,-1.805 -0.555,-1.805 0.595,0 0.37,-0.65 -0.495,-1.445 -0.87,-0.795 -1.56,-2.015 -1.535,-2.71 0.04,-1.31 3.14,1.965 5.36,5.66 1.555,2.595 -0.49,2.815 -2.775,0.3 z m 60.63,47.94 c -1.145,-1.805 -1.4,-1.855 -1.435,-0.29 -0.04,2.03 1.34,3.855 2.275,3 0.305,-0.28 -0.07,-1.5 -0.84,-2.71 z m -47.135,-2.865 c 1.905,-4.22 1.88,-4.315 -1.835,-6.265 -3.735,-1.965 -3.785,-1.95 -5.905,1.805 -2.105,3.725 -2.08,3.835 1.59,6.515 2.05,1.495 3.835,2.61 3.97,2.475 0.13,-0.14 1.115,-2.175 2.18,-4.53 z m 51.995,1.87 c -0.825,-1.66 -1.68,-2.855 -1.895,-2.66 -0.8,0.735 1.17,5.675 2.26,5.675 0.625,0 0.46,-1.36 -0.365,-3.015 z m -72.87,-2.36 c 2.005,-2.805 1.97,-3.045 -0.615,-4.31 -2.195,-1.08 -3.26,-0.915 -5.365,0.83 -2.615,2.17 -2.615,2.18 0.255,4.31 3.575,2.65 3.195,2.705 5.725,-0.83 z m 41.5,-1.955 c -0.805,-1.38 -1.79,-2.215 -2.18,-1.855 -1.085,0.99 0.65,4.37 2.245,4.37 0.97,0 0.95,-0.77 -0.065,-2.515 z m 139.785,0.105 c 0.455,-1.59 0.04,-2.41 -1.215,-2.41 -1.045,0 -4.325,-1.13 -7.285,-2.515 -4.335,-2.025 -5.595,-2.2 -6.465,-0.91 -0.88,1.305 -1.395,1.315 -2.77,0.055 -1.345,-1.23 -1.355,-1.73 -0.04,-2.475 1.215,-0.685 0.805,-1.655 -1.555,-3.69 -3.14,-2.7 -6.05,-2.565 -6.01,0.28 0.015,0.96 0.395,0.89 1.15,-0.2 0.87,-1.26 1.36,-1.295 2.12,-0.165 0.545,0.805 0.35,1.83 -0.435,2.275 -1.83,1.035 5.87,6.72 13.275,9.795 7.055,2.935 8.38,2.93 9.23,-0.04 z m -9.91,-2.035 c -1.265,-0.3 -2.305,-1.05 -2.305,-1.665 0,-1.575 1.56,-1.325 4.525,0.73 2.555,1.77 2.085,1.965 -2.22,0.935 z m -77.79,-2.285 c -1.04,-2.59 -1.93,-3.795 -1.98,-2.68 -0.115,2.55 2.395,8.735 3.235,7.965 0.345,-0.315 -0.22,-2.695 -1.255,-5.285 z m -82.4,1.115 c 1.315,-2.645 1.245,-3.525 -0.41,-5.035 -1.79,-1.64 -2.28,-1.6 -4.665,0.38 -3.275,2.715 -3.36,4.11 -0.37,6.185 3.2,2.225 3.635,2.105 5.445,-1.53 z m 86.455,-0.71 c -0.365,-0.825 -0.66,-0.15 -0.66,1.505 0,1.655 0.295,2.335 0.66,1.505 0.365,-0.825 0.365,-2.18 0,-3.01 z m 2.895,-3.61 c -1.745,-7.33 -2.585,-8.395 -1.755,-2.22 0.67,4.955 1.49,7.335 2.53,7.335 0.24,0 -0.105,-2.3 -0.775,-5.115 z m 80.395,1.52 c -1.03,-0.585 -2.455,-0.73 -3.165,-0.33 -0.705,0.4 -0.145,1.11 1.255,1.575 3.14,1.045 4.45,0.195 1.91,-1.245 z m -177.17,-2.98 c 2.25,-2.83 2.215,-2.95 -1.455,-5.34 l -3.75,-2.45 -3.145,3.075 -3.145,3.07 3.1,2.305 c 4.025,2.99 5.595,2.865 8.395,-0.66 z m 92.595,0.33 c -0.42,-0.96 -0.73,-0.675 -0.795,0.73 -0.055,1.27 0.255,1.98 0.69,1.58 0.44,-0.4 0.485,-1.44 0.105,-2.31 z m 79.07,0.655 c -0.24,-0.535 -1.17,-1.075 -2.07,-1.195 -0.9,-0.12 -4.155,-2 -7.23,-4.175 -5.305,-3.745 -5.425,-3.775 -2.31,-0.55 5.09,5.275 13.17,9.395 11.61,5.92 z m -72.495,-3.06 c -0.42,-0.96 -0.735,-0.675 -0.795,0.725 -0.06,1.27 0.25,1.98 0.69,1.58 0.435,-0.4 0.48,-1.435 0.105,-2.305 z m 3.94,0 c -0.42,-0.96 -0.73,-0.675 -0.795,0.725 -0.055,1.27 0.255,1.98 0.695,1.58 0.435,-0.4 0.48,-1.435 0.1,-2.305 z m -11.435,-1.95 c -0.015,-1.755 -0.195,-1.79 -1.295,-0.23 -1.66,2.355 -1.66,3.95 0,3.005 0.725,-0.405 1.31,-1.66 1.295,-2.775 z m 75,-2.69 c -2.5,-1.96 -5.105,-3.56 -5.78,-3.56 -1.205,0 8.38,7.025 9.675,7.09 0.36,0.02 -1.39,-1.57 -3.895,-3.53 z m 13.1,3.25 c 0,-0.23 -3.11,-2.71 -6.905,-5.51 l -6.9,-5.095 6.535,5.505 c 6.305,5.315 7.27,5.99 7.27,5.1 z m -78.005,-4.705 c -0.365,-0.825 -0.665,-0.15 -0.665,1.505 0,1.655 0.3,2.33 0.665,1.505 0.365,-0.83 0.365,-2.18 0,-3.01 z m -0.92,-5.555 c -0.095,-1.565 -3.8,5.325 -3.795,7.06 0,0.995 0.865,-0.015 1.925,-2.245 1.055,-2.23 1.9,-4.395 1.87,-4.815 z m -6.94,4.425 c -0.42,-0.96 -0.73,-0.675 -0.795,0.73 -0.055,1.27 0.255,1.98 0.69,1.58 0.44,-0.4 0.485,-1.44 0.105,-2.31 z m 87.175,2.245 c 0,-0.22 -1.625,-1.71 -3.615,-3.315 l -3.615,-2.915 3.19,3.31 c 2.98,3.095 4.04,3.86 4.04,2.92 z m -24.305,-18.015 c 1.285,-1.99 1.66,-3.235 0.835,-2.77 -0.83,0.47 -1.505,0.31 -1.505,-0.35 0,-0.665 0.59,-1.54 1.315,-1.95 0.725,-0.41 1.315,-1.32 1.315,-2.025 0,-0.755 -0.895,-0.6 -2.185,0.375 -2,1.505 -2.045,1.385 -0.555,-1.36 1.11,-2.05 0.15,-1.475 -3.025,1.805 -2.56,2.65 -4.655,5.36 -4.655,6.02 0,0.665 1.45,-0.42 3.23,-2.405 4.895,-5.47 3.88,-2.425 -1.235,3.71 -2.465,2.955 -4.72,4.71 -5.015,3.9 -0.335,-0.91 -0.85,-1.015 -1.35,-0.27 -0.445,0.66 -0.25,1.985 0.44,2.95 1.03,1.435 1.72,1.175 3.895,-1.47 5.51,-6.715 7.905,-8.57 3.615,-2.805 -2.46,3.315 -4.925,6.835 -5.485,7.825 -1.685,3.005 7.855,-7.28 10.365,-11.18 z m -40.105,8.705 c 0,-0.625 -0.595,-1.135 -1.315,-1.135 -0.725,0 -1.315,0.845 -1.315,1.875 0,1.035 0.59,1.545 1.315,1.135 0.72,-0.41 1.315,-1.255 1.315,-1.875 z m -3.775,-5.16 c -0.805,-0.885 -1.025,-2.085 -0.485,-2.665 0.535,-0.58 -0.12,-0.285 -1.455,0.655 -2.36,1.66 -2.36,1.735 0,2.585 3.47,1.25 3.565,1.22 1.94,-0.575 z m 36.505,-8.07 6.505,-8.49 -2.705,-5.96 c -1.485,-3.275 -3.07,-5.96 -3.515,-5.955 -0.445,0 -3.39,4.38 -6.545,9.73 l -5.735,9.73 2.32,4.715 c 1.275,2.595 2.51,4.715 2.745,4.715 0.23,0 3.35,-3.82 6.93,-8.485 z m -3.7,-0.56 c 1.58,-2.66 4.405,-5.89 6.27,-7.18 l 3.395,-2.345 -2.85,3.565 c -1.565,1.965 -4.39,5.195 -6.27,7.18 l -3.425,3.61 z m 2.52,6.495 c 0,-0.665 -0.595,-0.87 -1.315,-0.46 -0.725,0.41 -1.315,1.285 -1.315,1.945 0,0.665 0.59,0.87 1.315,0.46 0.72,-0.405 1.315,-1.285 1.315,-1.945 z m -147.235,0.93 c 0,-0.23 -1.33,-1.45 -2.955,-2.71 l -2.96,-2.29 2.505,2.705 c 2.355,2.545 3.41,3.26 3.41,2.295 z m 105.67,-1.455 c 0.45,-1.07 0.225,-1.555 -0.52,-1.13 -0.715,0.405 -1.295,1.245 -1.295,1.865 0,1.735 0.94,1.35 1.815,-0.735 z m -1.535,-10.03 c -0.58,-1.375 -0.99,-1.325 -2.265,0.275 -0.86,1.075 -2.075,1.56 -2.705,1.075 -0.63,-0.49 -0.37,0.04 0.57,1.17 1.81,2.165 0.865,5.1 -1.255,3.9 -0.685,-0.39 -0.845,-1.295 -0.36,-2.01 0.52,-0.775 0.27,-0.965 -0.61,-0.465 -1.105,0.625 -1.09,1.43 0.055,3.115 1.455,2.13 1.725,2.035 4.41,-1.555 1.575,-2.105 2.545,-4.58 2.16,-5.505 z m -10.15,3.52 c 0.32,-1.53 1.49,-3.7 2.595,-4.82 2.315,-2.34 2.575,-3.655 0.735,-3.655 -1.665,0 -5.47,6.76 -5.92,10.505 -0.43,3.6 1.765,1.88 2.59,-2.03 z m 23.18,2.66 c 1.635,-1.91 1.59,-1.95 -0.495,-0.455 -1.265,0.91 -2.3,1.86 -2.3,2.11 0,0.99 1.08,0.35 2.795,-1.655 z m -25.735,-5.235 c 1.87,-3.375 3.21,-6.295 2.98,-6.48 -0.23,-0.19 -5.15,-2.065 -10.935,-4.165 -5.78,-2.105 -14.895,-5.98 -20.25,-8.62 -5.52,-2.72 -10.235,-4.34 -10.88,-3.75 -0.63,0.58 -1.495,3.735 -1.92,7.025 l -0.77,5.97 14.28,6.18 c 11.525,4.985 21.7,9.21 23.79,9.88 0.17,0.055 1.835,-2.665 3.705,-6.04 z m -1.38,-3.49 c 1.31,-1.325 2.675,-2.41 3.035,-2.41 0.365,0 -0.41,1.085 -1.72,2.41 -1.31,1.325 -2.675,2.405 -3.035,2.405 -0.365,0 0.41,-1.08 1.72,-2.405 z m 49.905,-2.71 c 1.97,-3.145 3.285,-5.72 2.915,-5.72 -0.805,0 -8.78,11.72 -8.78,12.9 0,1.39 2.105,-1.19 5.865,-7.18 z m -11.505,1.495 c 1.48,-2.68 1.675,-2.74 1.83,-0.59 0.095,1.32 0.065,2.95 -0.075,3.61 -0.135,0.66 0.46,0.565 1.325,-0.21 1.185,-1.065 1.21,-2.355 0.105,-5.26 -0.805,-2.115 -1.185,-5.27 -0.85,-7.01 0.34,-1.745 -0.215,-1.005 -1.225,1.645 l -1.845,4.815 -0.1,-5.79 c -0.06,-3.57 0.405,-5.505 1.215,-5.045 0.81,0.46 1.315,-1.615 1.315,-5.415 0,-3.515 0.525,-5.865 1.225,-5.47 0.675,0.385 0.91,2.495 0.52,4.695 -0.985,5.56 1.985,18.3 3.865,16.58 1.025,-0.935 1,-3 -0.09,-7.325 -0.905,-3.58 -1.065,-7.125 -0.405,-8.755 0.925,-2.28 1.275,-1.66 2.08,3.695 0.68,4.505 1.385,6.055 2.355,5.165 0.97,-0.885 0.655,-3.715 -1.05,-9.44 -2.065,-6.945 -2.575,-7.72 -3.365,-5.165 -0.845,2.735 -0.94,2.64 -1.06,-1.05 -0.115,-3.48 0.15,-3.845 1.84,-2.56 1.085,0.82 2.03,2.38 2.1,3.455 0.075,1.08 0.56,0.605 1.085,-1.05 0.77,-2.43 1.145,-1.655 1.955,4.05 0.72,5.055 1.405,6.69 2.42,5.76 1.02,-0.935 0.915,-3.275 -0.36,-8.265 -2.215,-8.66 -2.81,-18.4 -1.115,-18.4 0.7,0 2.105,1.76 3.13,3.915 l 1.855,3.91 0.07,-5.415 c 0.045,-3.44 0.48,-4.83 1.185,-3.81 0.715,1.03 1.45,-1.135 2.055,-6.02 0.89,-7.17 1.065,-7.48 2.965,-5.22 1.95,2.325 1.995,2.29 1.39,-0.9 -0.34,-1.82 -0.115,-3.31 0.51,-3.31 0.62,0 1.14,-1.22 1.15,-2.71 0.015,-2.19 0.265,-2.365 1.295,-0.905 1.245,1.765 1.805,-0.615 1.775,-7.52 -0.01,-1.16 0.48,-2.11 1.08,-2.11 0.6,0 1.095,-0.945 1.11,-2.105 0.015,-1.77 0.215,-1.825 1.24,-0.335 1.35,1.95 1.125,2.285 3.63,-5.385 1.41,-4.31 1.305,-16.9 -0.175,-20.915 -0.805,-2.175 -0.655,-2.635 0.625,-1.91 1.215,0.685 1.43,0.36 0.78,-1.185 -0.665,-1.595 -0.385,-1.96 1.11,-1.435 1.595,0.56 1.845,0.03 1.225,-2.575 -0.56,-2.335 -0.41,-2.795 0.505,-1.6 0.865,1.13 1.165,-2.615 0.91,-11.42 l -0.375,-13.1 -5.495,-4.465 c -7.2,-5.85 -37.705,-19.735 -49.175,-22.38 l -9.025,-2.08 -17.53,16.565 c -18.02,17.025 -36.28,38.105 -46.495,53.68 -3.19,4.865 -6.505,9.09 -7.36,9.39 -2.435,0.855 -18.14,31.685 -18.14,35.605 0,3.74 7.34,11.67 11.295,12.2 1.16,0.16 5.645,2.83 9.975,5.945 4.325,3.115 8.2,5.66 8.605,5.66 0.41,0 4.13,1.98 8.265,4.405 9.875,5.785 27.415,13.24 33.61,14.29 2.71,0.46 4.93,1.345 4.93,1.975 0,0.625 0.55,0.83 1.225,0.45 0.67,-0.385 1.595,-0.145 2.05,0.53 0.455,0.67 1.98,1.22 3.395,1.22 1.41,0 3.595,0.55 4.85,1.22 3.02,1.61 16.22,4.735 18.685,4.425 1.065,-0.135 2.68,-1.595 3.595,-3.245 z m -34.91,-14.58 c -3.055,-1.905 -6.6,-3.47 -7.88,-3.47 -3.88,0 -15.175,-5.735 -19.52,-9.91 -9.17,-8.815 -11.385,-16.815 -7.73,-27.935 5.385,-16.395 22.505,-26.37 38.29,-22.325 7.945,2.04 17.465,10.035 22.75,19.12 3.64,6.25 4.27,8.655 4.605,17.49 0.37,9.94 -0.18,12.72 -2.605,13.13 -0.64,0.11 -1,0.66 -0.795,1.225 0.205,0.56 -1.715,2.83 -4.27,5.035 -2.555,2.205 -4.645,4.62 -4.645,5.365 0,0.745 -0.59,1.02 -1.315,0.615 -0.725,-0.41 -1.315,-0.14 -1.315,0.6 0,0.74 -0.59,1.01 -1.315,0.6 -0.72,-0.405 -1.315,-0.22 -1.315,0.415 0,0.635 -1.66,1.69 -3.69,2.335 -3.125,1 -4.55,0.645 -9.25,-2.29 z m 11.045,-3.125 c -0.36,-0.85 0.02,-1.545 0.84,-1.545 0.825,0 1.225,-0.25 0.89,-0.555 -0.335,-0.305 -1.91,-0.24 -3.505,0.14 -3.64,0.87 -3.815,3.51 -0.24,3.51 1.63,0 2.41,-0.6 2.015,-1.55 z m -0.73,-5.08 c 4.24,-2.72 12.045,-12.025 11.17,-13.32 -0.37,-0.55 0.02,-1.21 0.865,-1.47 2.01,-0.61 2.565,-11.055 0.915,-17.19 -3.19,-11.845 -15.85,-22.3 -26.935,-22.245 -19.57,0.105 -36.04,22.065 -28.675,38.235 6.745,14.81 30.575,23.745 42.66,15.99 z m -19.065,-2.485 c 0.45,-0.665 0.025,-1.205 -0.935,-1.205 -2.6,0 -11.345,-6.965 -13.365,-10.64 -4.205,-7.675 -2.865,-18.77 3.05,-25.2 5.175,-5.62 19.225,-8.17 26.005,-4.72 3.47,1.765 8.795,8.065 12.2,14.435 2.225,4.155 2.28,5.085 0.605,10.255 -2.27,6.985 -9.61,13.86 -17.535,16.42 -6.565,2.12 -11.22,2.425 -10.025,0.655 z m -5.205,-8.345 c -0.475,-0.71 -1.495,-1.285 -2.26,-1.285 -0.875,0 -0.775,0.69 0.265,1.835 1.8,1.99 3.41,1.545 1.995,-0.55 z m -3.34,-6.575 c 0,-0.26 -0.885,-0.785 -1.97,-1.165 -1.085,-0.38 -1.97,-0.17 -1.97,0.47 0,0.645 0.885,1.17 1.97,1.17 1.085,0 1.97,-0.215 1.97,-0.475 z m 3.945,-4.01 c -1.085,-0.37 -3.39,-1.16 -5.125,-1.745 -3.045,-1.035 -3.065,-1.13 -0.655,-2.8 2.405,-1.67 2.405,-1.73 0.055,-1.77 -1.66,-0.025 -2.19,-0.635 -1.66,-1.905 0.43,-1.025 0.27,-1.575 -0.36,-1.22 -0.63,0.355 -1.44,2.06 -1.8,3.79 -0.55,2.635 0.015,3.415 3.46,4.79 2.26,0.9 5,1.615 6.085,1.59 1.755,-0.045 1.755,-0.125 0,-0.73 z m 29.375,23.09 c -0.43,-1.02 -1.06,-1.6 -1.405,-1.285 -0.345,0.32 -0.235,1.155 0.24,1.86 1.295,1.92 2.055,1.545 1.165,-0.575 z m 23.31,1.155 c 0.065,-1.4 0.375,-1.685 0.795,-0.725 0.38,0.87 0.335,1.905 -0.105,2.305 -0.435,0.4 -0.745,-0.31 -0.69,-1.58 z m 5.155,-12.87 c 0,-1.725 0.615,-3.485 1.37,-3.91 0.895,-0.51 1.06,0.4 0.47,2.635 -1.21,4.615 -1.84,5.05 -1.84,1.275 z m -6.36,-39.035 c -0.835,-1.425 -1.18,-3.58 -0.765,-4.79 0.725,-2.11 0.695,-2.11 -0.77,-0.01 -0.84,1.195 -1.2,2.96 -0.8,3.91 0.4,0.955 0.155,1.735 -0.545,1.735 -0.7,0 -1.275,-0.56 -1.275,-1.25 0,-0.85 -0.79,-0.855 -2.495,-0.02 -2.025,0.99 -2.9,0.65 -4.655,-1.8 -1.19,-1.66 -1.795,-3.68 -1.35,-4.49 0.445,-0.81 -0.055,-0.505 -1.105,0.67 -1.71,1.915 -2,1.935 -2.72,0.225 -0.44,-1.055 -1.31,-1.63 -1.93,-1.275 -0.625,0.35 -3.035,-2.055 -5.365,-5.34 -2.325,-3.29 -4.67,-5.985 -5.21,-5.985 -0.535,0 -2.26,-2.09 -3.83,-4.65 -10.2,-16.615 5.37,-39.89 26.69,-39.89 16.375,0 28.76,12.665 30.375,31.065 0.25,2.855 0.76,5.64 1.135,6.195 0.375,0.56 -0.175,2.52 -1.215,4.36 -1.045,1.845 -1.545,3.88 -1.105,4.525 0.475,0.705 0.095,0.785 -0.95,0.19 -1.265,-0.715 -1.51,-0.435 -0.9,1.02 0.46,1.1 0.285,2 -0.395,2 -0.675,0 -0.855,0.905 -0.39,2.005 0.565,1.35 0.335,1.72 -0.7,1.135 -0.845,-0.48 -1.54,-0.265 -1.54,0.475 0,0.74 -0.655,0.975 -1.455,0.52 -0.975,-0.555 -1.165,0.015 -0.565,1.735 0.525,1.52 0.315,2.56 -0.52,2.56 -0.77,0 -1.42,-0.68 -1.45,-1.505 -0.025,-0.83 -0.89,-0.15 -1.925,1.505 -1.03,1.655 -1.915,2.465 -1.965,1.805 -0.045,-0.66 -0.66,-0.305 -1.36,0.795 -0.7,1.1 -2.31,1.855 -3.575,1.68 -1.265,-0.18 -2.65,0.535 -3.08,1.585 -0.65,1.595 -1.03,1.48 -2.295,-0.69 z m 6.945,-12.845 c 6.78,-4.07 10.33,-10.89 10.91,-20.985 0.51,-8.78 0.31,-9.615 -3.835,-15.89 -5.115,-7.74 -10.735,-10.83 -19.735,-10.83 -8.195,-0.005 -11.745,1.38 -18.785,7.325 -8.705,7.345 -10.935,17.295 -6.075,27.095 2.755,5.555 10.775,12.265 17.4,14.555 5.665,1.96 15.8,1.32 20.12,-1.27 z m -23.035,-4.7 c -7.015,-4.33 -10.72,-10.22 -10.015,-15.92 1.685,-13.645 8.41,-19.39 21.54,-18.39 5.49,0.415 7.91,1.295 10.985,3.995 7.94,6.965 8.105,17.44 0.405,25.82 -6.905,7.52 -15.335,9.175 -22.915,4.495 z m -171.575,80.145 c 3.319,-10.945 5.5825,-11.97 8.7985,-4 l 2.175,5.395 0.9675,-12.38 c 0.532,-6.81 0.631,-12.69 0.22,-13.065 -1.832,-1.68 -4.6155,1.04 -5.3955,5.27 -0.469,2.545 -1.3495,5.36 -1.956,6.26 -1.6195,2.4 -4.02,0.475 -4.068,-3.26 l -0.0415,-3.24 -2.697,3.31 c -3.5325,4.335 -5.107,4.185 -5.107,-0.485 0,-3.515 -0.172,-3.665 -2.3005,-1.965 -1.2655,1.01 -3.04,1.59 -3.9435,1.29 -3.207,-1.065 -1.5705,-5.1 3.615,-8.915 9.243,-6.805 5.546,-8.18 -5.5675,-2.07 -7.209,3.96 -15.4655,10.41 -15.4655,12.08 0,1.44 5.824,1.17 7.476,-0.34 0.786,-0.72 1.725,-0.855 2.0865,-0.3 0.3615,0.555 -2.025,5.215 -5.304,10.36 -6.689,10.495 -6.729,13.815 -0.061,5.085 7.7735,-10.175 7.4035,-9.855 8.978,-7.82 0.775,1.005 1.199,5.51 0.9545,10.155 l -0.4405,8.345 2.314,-4.735 c 1.273,-2.605 3.216,-6.765 4.3185,-9.25 3.545,-7.985 5.919,-4.785 5.951,8.03 0.01,3.915 0.384,6.785 0.8315,6.375 0.4475,-0.41 2.095,-4.97 3.6615,-10.13 z m 105.57,-4.275 c 1.15,-5.01 1.095,-6.66 -0.28,-7.975 -1.455,-1.39 -2.08,-1.035 -3.92,2.22 -2.705,4.795 -1.705,6.2 1.365,1.91 1.24,-1.73 2.545,-2.89 2.895,-2.565 0.35,0.32 -1.225,2.74 -3.505,5.375 -3.82,4.415 -3.96,4.885 -1.8,6.035 3.56,1.9 3.685,1.775 5.245,-5 z m -7.655,0.82 c 0.52,0.295 0.81,-1.19 0.65,-3.3 -0.165,-2.11 0.585,-4.735 1.66,-5.825 1.33,-1.355 1.5,-2.245 0.53,-2.795 -0.81,-0.455 -2.125,0.675 -3.045,2.605 -1.455,3.065 -2.805,3.705 -5.89,2.785 -0.545,-0.16 -1.43,-0.225 -1.975,-0.15 -1.625,0.235 -1.135,-1.095 1.79,-4.855 2.615,-3.365 2.54,-6.375 -0.1,-3.95 -1.92,1.765 -5.6,10.465 -4.055,9.59 0.76,-0.43 1.39,-0.075 1.4,0.79 0.015,1.26 0.25,1.245 1.15,-0.055 1.5,-2.165 3.025,0.105 2.03,3.03 -0.445,1.315 0.01,1.045 1.125,-0.655 1.27,-1.95 2.185,-2.415 2.83,-1.455 0.53,0.78 0.32,2.125 -0.455,2.985 -0.78,0.86 -0.99,1.95 -0.47,2.43 0.52,0.475 1.155,0.285 1.415,-0.42 0.255,-0.71 0.895,-1.045 1.41,-0.755 z m -0.705,-13.74 c -0.84,-0.765 -4.415,3.585 -4.375,5.325 0.015,0.705 1.16,-0.07 2.54,-1.715 1.38,-1.645 2.205,-3.27 1.835,-3.61 z m -14.32,3.675 c 0.415,-0.615 0.255,-1.405 -0.36,-1.75 -0.615,-0.35 -1.12,0.155 -1.12,1.12 0,2.03 0.415,2.205 1.48,0.63 z m 119.01,-10.36 c -2.785,-7.655 -4.585,-10.385 -3.35,-5.07 0.345,1.49 1.31,5.92 2.14,9.85 1.185,5.595 1.78,6.69 2.77,5.07 0.89,-1.45 0.425,-4.38 -1.56,-9.85 z m -113.085,4.415 c 0.89,-1.57 1.035,-2.52 0.315,-2.115 -0.72,0.405 -1.71,-0.205 -2.2,-1.36 -0.78,-1.84 -1.115,-1.725 -2.72,0.91 -2.665,4.385 -2.32,5.515 0.88,2.895 2.795,-2.285 2.8,-2.28 1.81,0.715 -1.145,3.46 -0.425,3.065 1.915,-1.045 z m -87.24,-0.46 c 0.8855,2.88 3.144,3.735 3.174,1.205 0.01,-0.825 0.3255,-2.585 0.702,-3.91 0.506,-1.785 -0.375,-2.955 -3.394,-4.505 -4.057,-2.09 -4.1035,-2.08 -9.2465,1.705 -2.843,2.09 -5.15,4.66 -5.127,5.71 0.0285,1.3 0.8985,0.85 2.7435,-1.415 3.09,-3.79 5.102,-3.35 5.102,1.115 v 3.07 l 2.606,-2.84 2.6065,-2.84 z m 205.09,-4.815 c -0.44,-2.81 -0.22,-5.925 0.49,-6.92 1.01,-1.415 1.295,-1.09 1.31,1.505 0.01,1.82 0.675,3.31 1.475,3.31 0.85,0 1.085,-0.88 0.565,-2.105 -0.49,-1.16 -1.245,-3.735 -1.685,-5.72 l -0.8,-3.61 -1.175,3.61 c -2.615,8.025 -3.295,11.395 -2.16,10.755 0.645,-0.365 1.17,0.45 1.17,1.815 0,1.365 0.365,2.48 0.81,2.48 0.44,0 0.445,-2.305 0,-5.12 z m -125.78,-2.105 c 0,-1.045 -0.795,-0.54 -1.885,1.205 -2.47,3.955 -2.495,5.91 -0.04,2.935 1.06,-1.285 1.93,-3.145 1.925,-4.14 z m 2.465,1.775 c -0.405,-0.37 -1.14,0.295 -1.635,1.485 -0.715,1.715 -0.56,1.855 0.735,0.67 0.9,-0.815 1.305,-1.785 0.9,-2.155 z m -63.735,-2.26 c 0.7185,-1.715 -0.0975,-3.125 -1.8065,-3.125 -0.5185,0 -1.2515,1.08 -1.63,2.405 -0.7885,2.76 2.309,3.41 3.4365,0.72 z m 57.56,-0.035 c 1.96,1.11 0.74,-2.16 -1.775,-4.765 -2.595,-2.685 -2.98,-2.525 -4.11,1.675 -0.445,1.655 -0.47,2.33 -0.055,1.505 1.39,-2.775 4.725,-1.75 3.925,1.2 -0.405,1.49 -0.395,2.03 0.025,1.2 0.415,-0.835 1.31,-1.2 1.99,-0.815 z m -62.865,-1.885 c 1.02,-3.575 -1.0815,-4 -2.789,-0.565 -1.1785,2.365 -1.115,2.97 0.3115,2.97 0.9845,0 2.0995,-1.085 2.4775,-2.405 z m -5.122,-0.705 c 1.101,-2.625 0.9995,-5.315 -0.2005,-5.315 -1.6,0 -4.4245,4.8 -3.5695,6.065 1.169,1.735 2.872,1.395 3.77,-0.75 z m -4.721,-3.47 c 1.867,-3.75 -0.4365,-5.455 -3.0715,-2.27 -2.1025,2.545 -2.2835,3.305 -1.05,4.435 1.554,1.425 2.6135,0.865 4.1215,-2.165 z m 207.375,-2.515 c -0.495,-2.415 -1.195,-4.125 -1.555,-3.79 -0.365,0.33 -0.255,2.575 0.24,4.995 0.495,2.415 1.195,4.12 1.56,3.79 0.36,-0.33 0.25,-2.58 -0.245,-4.995 z m -212.42,-0.455 c 1.74,-2.98 1.7135,-3.69 -0.1375,-3.69 -1.5295,0 -4.957,3.48 -5.0325,5.115 -0.0875,1.89 3.8705,0.795 5.17,-1.425 z m 32.3155,1.03 c 0.43,-0.635 1.3,-0.855 1.935,-0.495 0.635,0.36 1.81,-0.58 2.61,-2.085 1.39,-2.63 1.365,-2.645 -0.59,-0.405 -3.06,3.495 -2.49,1.54 1.82,-6.225 2.125,-3.83 4.43,-9.26 5.12,-12.07 1.13,-4.615 1.01,-5.11 -1.24,-5.11 -1.38,0 -2.485,-0.84 -2.485,-1.89 0,-1.375 0.8,-1.68 2.955,-1.135 1.625,0.41 -0.86,-1.175 -5.52,-3.53 -4.665,-2.35 -10.44,-6.015 -12.835,-8.14 l -4.3555,-3.865 -2.9405,2.745 -2.9405,2.745 4.601,3.565 c 4.4795,3.465 11.2005,6.835 18.9155,9.475 2.09,0.715 3.45,1.615 3.03,2.005 -1.46,1.33 -12.97,-3.11 -20.8965,-8.065 -9.164,-5.73 -8.034,-6.175 -17.903,7.04 -3.809,5.095 -6.84,8.12 -7.235,7.22 -0.473,-1.08 -0.7115,-0.98 -0.7835,0.33 -0.1515,2.745 5.998,7.57 15.0135,11.775 5.1265,2.395 6.967,3.75 5.258,3.87 -4.105,0.285 7.1815,3.2 12.7915,3.3 2.695,0.05 5.25,-0.425 5.675,-1.055 z m 0.845,-30.095 c 0.26,-0.71 1.035,-1.29 1.72,-1.29 0.69,0 1.465,0.58 1.72,1.29 0.26,0.715 -0.515,1.295 -1.72,1.295 -1.205,0 -1.975,-0.58 -1.72,-1.295 z m -6.11,-2.23 c -0.97,-1.445 1.5,-2.87 3.25,-1.88 1.47,0.835 0.505,3 -1.335,3 -0.635,0 -1.5,-0.505 -1.915,-1.12 z m -5.314,-3.695 c -0.447,-0.665 0.145,-1.205 1.3145,-1.205 1.1695,0 1.7595,0.54 1.3145,1.205 -0.445,0.66 -1.04,1.2 -1.3145,1.2 -0.276,0 -0.8675,-0.54 -1.3145,-1.2 z m -3.7245,-3.21 c -1.5125,-1.39 -0.9575,-2.81 1.0955,-2.81 1.0845,0 1.972,0.81 1.972,1.805 0,1.88 -1.555,2.39 -3.0675,1.005 z m -21.951,32.4 c 0.023,-0.825 -0.4775,-1.505 -1.112,-1.505 -2.136,0 -4.406,3.565 -3.5585,5.59 0.762,1.815 1.018,1.79 2.7345,-0.29 1.042,-1.26 1.913,-2.965 1.936,-3.795 z m 219.16,3.085 c -0.42,-0.96 -0.735,-0.675 -0.795,0.73 -0.06,1.265 0.25,1.98 0.69,1.58 0.435,-0.4 0.48,-1.44 0.105,-2.31 z m 4.31,-10.61 c 0.015,-0.99 -0.85,-0.25 -1.93,1.645 -2.5,4.39 -2.515,5.505 -0.035,2.5 1.06,-1.285 1.945,-3.15 1.965,-4.145 z m -2.08,-1.865 c 0.45,-1.075 0.23,-1.555 -0.515,-1.135 -0.715,0.405 -1.3,1.245 -1.3,1.87 0,1.73 0.94,1.35 1.815,-0.735 z m -134.76,-14.14 c 3.885,-6.49 6.735,-12.09 6.34,-12.455 -1.705,-1.565 -9.045,1.165 -10.385,3.86 -0.785,1.57 -2.02,2.52 -2.75,2.105 -0.735,-0.415 -0.92,-0.15 -0.42,0.595 0.5,0.74 -0.59,4.055 -2.425,7.37 -3.99,7.21 -4.32,9.505 -1.03,7.175 1.7,-1.205 1.615,-0.9 -0.325,1.18 l -2.625,2.81 3.28,-0.425 c 2.625,-0.335 4.685,-2.77 10.34,-12.215 z m -15.535,2.645 c 2.225,-4.04 3.765,-7.61 3.415,-7.925 -0.35,-0.32 -1.98,2.035 -3.62,5.235 -4.605,8.96 -5.08,10.035 -4.44,10.035 0.33,0 2.42,-3.305 4.645,-7.345 z m 5.08,-4.095 c 0,-0.66 -1.13,0.695 -2.515,3.01 -1.39,2.32 -2.52,4.755 -2.52,5.42 0,0.66 1.13,-0.695 2.52,-3.01 1.385,-2.32 2.515,-4.755 2.515,-5.42 z m -64.115,-4.515 c 2.1255,-2.775 2.3215,-3.415 0.675,-2.205 -2.343,1.725 -5.421,6.12 -4.285,6.12 0.3375,0 1.962,-1.76 3.61,-3.915 z m 35.484,3.07 c -1.185,-0.43 -1.315,-0.92 -0.38,-1.45 0.875,-0.495 0.38,-1.385 -1.305,-2.35 -1.49,-0.855 -2.32,-0.97 -1.84,-0.26 1.19,1.76 0.27,1.63 -5.125,-0.725 -3.87,-1.69 -4.355,-2.31 -3,-3.84 1.015,-1.15 1.06,-1.525 0.125,-1.01 -0.82,0.45 -3.045,-0.305 -4.945,-1.67 -1.9,-1.37 -4.186,-2.25 -5.083,-1.955 -0.8965,0.295 0.5625,1.51 3.243,2.7 2.68,1.195 4.58,2.6 4.225,3.13 -0.68,1.01 12.325,8.31 14.565,8.17 0.72,-0.05 0.505,-0.38 -0.48,-0.74 z m 186.86,-18.355 c -1.885,-4.01 -3.63,-7.105 -3.875,-6.885 -0.245,0.225 0.74,3.565 2.19,7.425 1.45,3.86 2.34,7.29 1.975,7.62 -0.365,0.335 -0.66,-0.115 -0.66,-1 0,-0.88 -0.345,-1.29 -0.765,-0.905 -0.42,0.385 -0.035,1.945 0.855,3.465 l 1.615,2.77 1.05,-2.6 c 0.73,-1.81 0.005,-4.82 -2.385,-9.89 z m -185.725,5.4 c 0,-0.31 -1.33,-1.155 -2.955,-1.875 -2.84,-1.26 -2.86,-1.24 -0.41,0.56 2.685,1.97 3.365,2.235 3.365,1.315 z m 187.9,-8.395 c -3.92,-8.665 -4.77,-7.885 -1.065,0.975 1.565,3.755 3.125,6.565 3.465,6.255 0.34,-0.31 -0.74,-3.565 -2.4,-7.23 z m 1.235,-4.74 c -1.57,-3.755 -3.08,-6.61 -3.36,-6.355 -0.285,0.26 0.75,3.555 2.29,7.33 1.545,3.775 3.055,6.635 3.36,6.355 0.31,-0.28 -0.725,-3.58 -2.29,-7.33 z m 3.48,-2.895 c -0.155,-2.5 -0.965,-5.715 -1.8,-7.14 -2.13,-3.65 -1.89,-4.87 0.415,-2.085 3.26,3.95 2.25,-0.38 -1.29,-5.51 -3.415,-4.955 -5.77,-6.66 -3.255,-2.36 0.78,1.335 1.005,3.045 0.5,3.795 -0.53,0.79 -0.34,1.035 0.455,0.585 0.81,-0.455 1.35,0.335 1.305,1.925 -0.04,1.485 0.37,3.78 0.905,5.105 0.965,2.375 0.95,2.375 -1.1,0.07 -1.145,-1.285 -2.08,-2.03 -2.08,-1.655 0,1 5.31,11.82 5.8,11.82 0.235,0 0.3,-2.05 0.145,-4.55 z m 4.4,-30.965 c 0.125,-5.185 -0.505,-6.765 -4.545,-11.435 -2.58,-2.98 -7.75,-7.755 -11.49,-10.605 -7.67,-5.855 -27.315,-15.044996 -36.66,-17.154996 -5.97,-1.345 -6.39,-1.265 -11.175,2.225 -2.735,1.995 -6.41,5.035 -8.16,6.754996 l -3.19,3.13 h 3.47 c 5.31,0 14.615,3.195 30.51,10.48 17.22,7.89 26.57,14.19 33.97,22.89 l 5.47,6.425 0.83,-3.345 c 0.455,-1.84 0.895,-6.055 0.97,-9.365 z m -8.21,-0.045 c -1.175,-2.8 0.125,-4.17 3.95,-4.17 2.67,0 3.22,0.52 2.88,2.71 -0.515,3.3 -5.605,4.39 -6.83,1.46 z m 5.04,-0.475 c 0.97,-1.44 -1.505,-2.865 -3.255,-1.875 -1.47,0.83 -0.505,2.995 1.335,2.995 0.64,0 1.5,-0.5 1.92,-1.12 z m -13.535,-7.14 c -2.295,-1.355 -1.45,-6.66 1.125,-7.11 1.1,-0.19 3.17,0.45 4.6,1.425 2.09,1.415 2.32,2.2 1.15,3.945 -1.69,2.53 -4.38,3.21 -6.875,1.74 z m 3.73,-2.57 c 0,-0.665 -0.625,-1.205 -1.39,-1.205 -0.77,0 -1.03,0.54 -0.58,1.205 0.445,0.66 1.07,1.2 1.39,1.2 0.32,0 0.58,-0.54 0.58,-1.2 z m -15.51,-6.26 c -4.045,-3.705 1.315,-9.075 5.715,-5.735 2.645,2.015 2.385,4.45 -0.635,5.93 -3.17,1.555 -3.17,1.555 -5.08,-0.195 z m 5.48,-1.92 c 0.355,-0.525 -0.635,-1.04 -2.205,-1.15 -2.255,-0.155 -2.445,0.04 -0.895,0.935 2.395,1.39 2.315,1.38 3.1,0.215 z m -18.185,-5.795 c -2.645,-2.425 -0.525,-5.29 3.915,-5.29 3.905,0 5.465,3.655 2.43,5.69 -2.97,1.985 -3.795,1.935 -6.345,-0.4 z m 5.865,-2.28 c 0,-1 -1.165,-1.805 -2.625,-1.805 -3.24,0 -3.48,2.03 -0.33,2.78 1.265,0.305 2.45,0.615 2.63,0.69 0.18,0.08 0.325,-0.67 0.325,-1.665 z m -24.885,-4.06 c -1.88,-3.219996 -1.815,-3.474996 1.225,-4.969996 3.71,-1.815 8.18,0.52 7.64,3.994996 -0.565,3.635 -6.905,4.33 -8.865,0.975 z m 6.96,-1.959996 c -0.84,-2.005 -3.85,-2.42 -5.02,-0.685 -0.415,0.615 0.585,1.35 2.225,1.639996 1.635,0.29 3.105,0.6 3.265,0.69 0.155,0.09 -0.055,-0.65 -0.47,-1.644996 z M 267.42,110.8505 c -5.89,-6.72 -9.24,-9.265 -17.405,-13.204996 -5.56,-2.685 -9.225,-4.915 -8.14,-4.96 2.72,-0.11 -3.125,-3.06 -10.815,-5.455 -5.57,-1.735 -6.505,-1.75 -9.06,-0.11 l -2.85,1.825 3.805,0.87 c 14.275,3.255 35.08,14.219996 45.16,23.794996 3.22,3.06 6.025,5.565 6.23,5.565 0.2,0 -2.915,-3.745 -6.925,-8.325 z m 10.88,0.815 c -0.315,-1.495 -0.585,-0.555 -0.6,2.095 -0.015,2.645 0.245,3.87 0.575,2.72 0.325,-1.15 0.34,-3.315 0.025,-4.815 z m -3.56,3.485 c 0,-0.23 -1.33,-1.45 -2.955,-2.71 l -2.96,-2.295 2.505,2.71 c 2.355,2.545 3.41,3.255 3.41,2.295 z m -2.73,-13.54 c -1.75,-1.714996 -4.37,-3.639996 -5.815,-4.274996 -1.445,-0.63 -0.31,0.77 2.52,3.119996 6.015,4.99 7.885,5.645 3.295,1.155 z m -9.1,-1.694996 c -5.09,-3.925 -19.85,-11.335 -24.975,-12.535 -1.81,-0.425 0.705,1.145 5.585,3.49 4.88,2.345 8.875,4.54 8.875,4.88 0,0.335 -1.745,-0.215 -3.88,-1.225 -2.135,-1.01 -4.35,-1.81 -4.93,-1.785 -0.58,0.03 1,1.05 3.505,2.27 2.505,1.225 5.41,1.92 6.46,1.555 1.24,-0.44 1.565,-0.17 0.935,0.765 -0.535,0.79 -0.485,1.36 0.11,1.265 2.89,-0.46 4.445,0.245 3.58,1.619996 -0.52,0.825 -0.51,1.15 0.015,0.715 0.53,-0.43 2.545,-0.03 4.485,0.9 5.275,2.52 5.335,2.015 0.235,-1.914996 z m 9.14,-1.875 c -0.93,-1.025 -2.925,-2.43 -4.43,-3.115 -1.64,-0.745 -1.16,-0.015 1.205,1.83 4.525,3.524996 5.67,3.979996 3.225,1.285 z m -10.455,-3.295 c 0,-2.31 -16.355,-10.64 -24.155,-12.3 -5.62,-1.2 -7.09,-1.155 -8.505,0.23 -1.445,1.415 -1.205,1.56 1.525,0.935 3.29,-0.755 18.015,4.845 26.535,10.09 4.845,2.98 4.6,2.925 4.6,1.045 z m 11.83,0.435 c 0,-0.615 -1.92,-2.335 -4.27,-3.815 l -4.275,-2.695 3.865,3.815 c 4.16,4.115 4.68,4.415 4.68,2.695 z m -17.62,-8.32 c -0.82,-1.215 -17.04,-8.64 -18.69,-8.555 -0.925,0.045 17.525,9.3 18.97,9.51 0.225,0.035 0.1,-0.395 -0.28,-0.955 z m 6.45,-0.925 c -3.51,-2.485 -13.66,-7.175 -17.75,-8.205 -1.805,-0.45 0.53,1.1 5.19,3.455 4.66,2.35 9.065,4.815 9.79,5.48 0.73,0.665 2.24,1.195 3.36,1.17 1.595,-0.03 1.47,-0.44 -0.59,-1.9 z m -28.265,-0.465 c 0,-0.665 -0.26,-1.205 -0.58,-1.205 -0.32,0 -0.945,0.54 -1.39,1.205 -0.45,0.66 -0.19,1.2 0.575,1.2 0.77,0 1.395,-0.54 1.395,-1.2 z m 30.235,-5.4 c 0,-1.22 -15.835,-7.845 -18.695,-7.825 -1.795,0.015 0.96,1.65 6.865,4.085 10.215,4.215 11.83,4.725 11.83,3.74 z m 0,-6.1 c 0,-0.735 -8.525,-4.18 -10.145,-4.1 -1.205,0.055 7.695,4.64 9.16,4.715 0.54,0.025 0.985,-0.25 0.985,-0.615 z m -12.19,-4.88 c -0.435,-0.4 -1.57,-0.44 -2.515,-0.095 -1.05,0.385 -0.74,0.67 0.79,0.73 1.39,0.05 2.165,-0.235 1.725,-0.635 z m 11.75,-4.575 c 0,-0.965 -0.8,-1.41 -1.86,-1.035 -1.535,0.54 -1.555,0.835 -0.11,1.67 0.965,0.56 1.8,1.03 1.86,1.04 0.06,0.01 0.11,-0.745 0.11,-1.675 z m 13.545,-25.395 c 0,-0.66 -0.575,-0.39 -1.275,0.6 -0.7,0.995 -1.275,2.35 -1.275,3.01 0,0.665 0.575,0.39 1.275,-0.6 0.7,-0.995 1.275,-2.35 1.275,-3.01 z m 3.935,-8.365 c 0.085,-2.069 -2.25,1.01 -3.145,4.15 l -0.86,3.01 1.98,-3.01 c 1.09,-1.655 2,-3.525 2.025,-4.15 z m 6.71,-9 c 0.815,1.179 1.19,0.147 1.205,-3.303 0.01,-2.76 0.375,-6.0105 0.8,-7.223 0.46,-1.2874999 0.32,-1.6874999 -0.325,-0.961 -0.61,0.684 -2,1.1915 -3.085,1.1275 -2.98,-0.1765 -6.58,3.1005 -6.515,5.9405 0.045,2.004 0.57,1.6565 2.575,-1.691 2.975,-4.98 3.38,-4.3185 0.795,1.3085 -1.62,3.522 -1.58,4.3045 0.33,6.644 l 2.16,2.651 0.44,-3.104 c 0.335,-2.3725 0.715,-2.7 1.62,-1.3895 z m 3.41,-7.615 c -0.365,-0.8275 -0.66,-0.1505 -0.66,1.505 0,1.655 0.295,2.3325 0.66,1.5045 0.365,-0.8275 0.365,-2.182 0,-3.0095 z m 10.96,-6.1104999 c 0,-0.2155 -1.625,-1.705 -3.615,-3.3105 l -3.615,-2.9185 3.19,3.3105 c 2.975,3.0945 4.04,3.863 4.04,2.9185 z"
     style="fill:#284989;stroke-width:0.5"
     id="path10" />
</svg>
